<svg width="1415" height="221" viewBox="0 0 1415 221" fill="none" xmlns="http://www.w3.org/2000/svg">
<path d="M0 169.034V32.6705H42.1697V57.5284H43.5902C46.076 48.5322 50.1302 41.8442 55.7528 37.4645C61.3755 33.0256 67.9155 30.8061 75.3729 30.8061C77.3852 30.8061 79.4567 30.9541 81.5874 31.25C83.718 31.4867 85.7008 31.8714 87.5355 32.4041V70.1349C85.464 69.4247 82.7415 68.8625 79.3679 68.4482C76.0535 68.0339 73.0942 67.8267 70.4901 67.8267C65.3409 67.8267 60.6948 68.9808 56.5518 71.2891C52.468 73.5381 49.2424 76.7045 46.875 80.7884C44.5668 84.813 43.4126 89.5478 43.4126 94.9929V169.034H0Z" fill="black"/>
<path d="M161.887 171.609C147.624 171.609 135.313 168.797 124.956 163.175C114.657 157.493 106.726 149.414 101.163 138.938C95.6587 128.403 92.9066 115.885 92.9066 101.385C92.9066 87.2988 95.6883 74.9882 101.252 64.4531C106.815 53.8589 114.657 45.6321 124.778 39.7727C134.899 33.8542 146.825 30.8949 160.556 30.8949C170.262 30.8949 179.14 32.4041 187.189 35.4226C195.239 38.441 202.193 42.9096 208.052 48.8281C213.912 54.7467 218.469 62.0561 221.724 70.7564C224.979 79.3975 226.607 89.3111 226.607 100.497V111.328H108.088V86.1151H186.213C186.154 81.4986 185.059 77.3852 182.928 73.7749C180.797 70.1645 177.868 67.3532 174.139 65.3409C170.469 63.2694 166.238 62.2337 161.444 62.2337C156.59 62.2337 152.24 63.3286 148.393 65.5185C144.546 67.6492 141.498 70.5788 139.249 74.3075C137 77.977 135.816 82.1496 135.698 86.8253V112.482C135.698 118.046 136.793 122.929 138.983 127.131C141.172 131.274 144.28 134.499 148.304 136.808C152.329 139.116 157.123 140.27 162.686 140.27C166.533 140.27 170.025 139.737 173.162 138.672C176.299 137.607 178.992 136.038 181.241 133.967C183.49 131.895 185.177 129.35 186.301 126.332L226.163 127.486C224.506 136.423 220.866 144.206 215.243 150.835C209.68 157.404 202.37 162.524 193.315 166.193C184.26 169.804 173.784 171.609 161.887 171.609Z" fill="black"/>
<path d="M273.193 171.609C266.801 171.609 261.327 169.36 256.769 164.862C252.271 160.363 250.052 154.918 250.111 148.526C250.052 142.253 252.271 136.896 256.769 132.457C261.327 127.959 266.801 125.71 273.193 125.71C279.23 125.71 284.557 127.959 289.173 132.457C293.849 136.896 296.217 142.253 296.276 148.526C296.217 152.788 295.092 156.664 292.902 160.156C290.771 163.648 287.96 166.43 284.468 168.501C281.035 170.573 277.277 171.609 273.193 171.609ZM273.193 78.0362C266.801 78.0362 261.327 75.8168 256.769 71.3778C252.271 66.8797 250.052 61.4051 250.111 54.9538C250.052 48.6802 252.271 43.3239 256.769 38.8849C261.327 34.3868 266.801 32.1378 273.193 32.1378C279.23 32.1378 284.557 34.3868 289.173 38.8849C293.849 43.3239 296.217 48.6802 296.276 54.9538C296.217 59.2152 295.092 63.0919 292.902 66.5838C290.771 70.0758 287.96 72.8575 284.468 74.929C281.035 77.0005 277.277 78.0362 273.193 78.0362Z" fill="black"/>
<path d="M324.951 220.17V32.6705H367.92V56.0192H369.252C371.027 51.8762 373.543 47.8812 376.798 44.0341C380.112 40.187 384.314 37.0502 389.404 34.6236C394.553 32.1378 400.709 30.8949 407.87 30.8949C417.34 30.8949 426.188 33.3807 434.415 38.3523C442.701 43.3239 449.389 50.9884 454.479 61.3459C459.569 71.7034 462.114 84.9018 462.114 100.941C462.114 116.388 459.658 129.321 454.745 139.737C449.892 150.154 443.322 157.966 435.036 163.175C426.81 168.383 417.665 170.987 407.604 170.987C400.738 170.987 394.79 169.863 389.759 167.614C384.729 165.365 380.497 162.405 377.064 158.736C373.691 155.066 371.086 151.13 369.252 146.928H368.364V220.17H324.951ZM367.476 100.852C367.476 108.191 368.453 114.583 370.406 120.028C372.418 125.473 375.289 129.705 379.017 132.724C382.805 135.683 387.333 137.163 392.6 137.163C397.927 137.163 402.455 135.683 406.183 132.724C409.912 129.705 412.723 125.473 414.617 120.028C416.57 114.583 417.547 108.191 417.547 100.852C417.547 93.5133 416.57 87.1508 414.617 81.7649C412.723 76.379 409.912 72.2064 406.183 69.2472C402.514 66.2879 397.986 64.8082 392.6 64.8082C387.274 64.8082 382.746 66.2583 379.017 69.1584C375.289 72.0585 372.418 76.2015 370.406 81.5874C368.453 86.9732 367.476 93.3949 367.476 100.852Z" fill="black"/>
<path d="M484.863 169.034V32.6705H527.033V57.5284H528.453C530.939 48.5322 534.994 41.8442 540.616 37.4645C546.239 33.0256 552.779 30.8061 560.236 30.8061C562.248 30.8061 564.32 30.9541 566.451 31.25C568.581 31.4867 570.564 31.8714 572.399 32.4041V70.1349C570.327 69.4247 567.605 68.8625 564.231 68.4482C560.917 68.0339 557.957 67.8267 555.353 67.8267C550.204 67.8267 545.558 68.9808 541.415 71.2891C537.331 73.5381 534.106 76.7045 531.738 80.7884C529.43 84.813 528.276 89.5478 528.276 94.9929V169.034H484.863Z" fill="black"/>
<path d="M623.402 171.342C614.702 171.342 606.978 169.892 600.231 166.992C593.543 164.033 588.246 159.594 584.339 153.675C580.492 147.698 578.569 140.211 578.569 131.214C578.569 123.639 579.901 117.247 582.564 112.038C585.227 106.83 588.897 102.598 593.572 99.343C598.248 96.0878 603.634 93.6316 609.73 91.9744C615.826 90.258 622.337 89.1039 629.261 88.5121C637.015 87.8018 643.259 87.062 647.994 86.2926C652.728 85.464 656.161 84.3099 658.292 82.8303C660.482 81.2914 661.577 79.1312 661.577 76.3494V75.9055C661.577 71.3482 660.008 67.8267 656.871 65.3409C653.735 62.8551 649.503 61.6122 644.176 61.6122C638.435 61.6122 633.819 62.8551 630.327 65.3409C626.835 67.8267 624.615 71.2595 623.668 75.6392L583.629 74.2188C584.813 65.9328 587.861 58.5346 592.773 52.0241C597.745 45.4545 604.551 40.3054 613.192 36.5767C621.893 32.7888 632.339 30.8949 644.531 30.8949C653.232 30.8949 661.251 31.9306 668.59 34.0021C675.929 36.0144 682.321 38.9737 687.766 42.88C693.211 46.727 697.414 51.4619 700.373 57.0845C703.391 62.7071 704.901 69.1288 704.901 76.3494V169.034H664.062V150.036H662.997C660.571 154.652 657.463 158.558 653.675 161.754C649.947 164.95 645.537 167.347 640.447 168.945C635.417 170.543 629.735 171.342 623.402 171.342ZM636.808 142.933C641.483 142.933 645.685 141.986 649.414 140.092C653.202 138.198 656.22 135.594 658.469 132.28C660.719 128.906 661.843 125 661.843 120.561V107.599C660.6 108.25 659.091 108.842 657.315 109.375C655.599 109.908 653.705 110.411 651.634 110.884C649.562 111.358 647.431 111.772 645.241 112.127C643.052 112.482 640.951 112.808 638.938 113.104C634.854 113.755 631.362 114.761 628.462 116.122C625.621 117.483 623.432 119.259 621.893 121.449C620.413 123.58 619.673 126.125 619.673 129.084C619.673 133.582 621.271 137.015 624.467 139.382C627.723 141.75 631.836 142.933 636.808 142.933Z" fill="black"/>
<path d="M795.188 171.609C780.925 171.609 768.614 168.797 758.256 163.175C747.958 157.493 740.027 149.414 734.464 138.938C728.96 128.403 726.207 115.885 726.207 101.385C726.207 87.2988 728.989 74.9882 734.553 64.4531C740.116 53.8589 747.958 45.6321 758.079 39.7727C768.2 33.8542 780.125 30.8949 793.857 30.8949C803.563 30.8949 812.441 32.4041 820.49 35.4226C828.539 38.441 835.494 42.9096 841.353 48.8281C847.212 54.7467 851.77 62.0561 855.025 70.7564C858.28 79.3975 859.908 89.3111 859.908 100.497V111.328H741.388V86.1151H819.513C819.454 81.4986 818.359 77.3852 816.229 73.7749C814.098 70.1645 811.168 67.3532 807.44 65.3409C803.77 63.2694 799.538 62.2337 794.744 62.2337C789.891 62.2337 785.541 63.3286 781.694 65.5185C777.847 67.6492 774.799 70.5788 772.55 74.3075C770.301 77.977 769.117 82.1496 768.999 86.8253V112.482C768.999 118.046 770.094 122.929 772.283 127.131C774.473 131.274 777.58 134.499 781.605 136.808C785.63 139.116 790.424 140.27 795.987 140.27C799.834 140.27 803.326 139.737 806.463 138.672C809.6 137.607 812.293 136.038 814.542 133.967C816.791 131.895 818.478 129.35 819.602 126.332L859.464 127.486C857.807 136.423 854.167 144.206 848.544 150.835C842.981 157.404 835.671 162.524 826.616 166.193C817.56 169.804 807.085 171.609 795.188 171.609Z" fill="black"/>
<path d="M1001.13 74.3075L961.27 75.3729C960.856 72.532 959.732 70.0166 957.897 67.8267C956.062 65.5777 953.665 63.8317 950.706 62.5888C947.806 61.2867 944.432 60.6357 940.585 60.6357C935.554 60.6357 931.263 61.6418 927.712 63.6541C924.22 65.6664 922.504 68.389 922.563 71.8217C922.504 74.4851 923.569 76.7933 925.759 78.7464C928.008 80.6996 932.003 82.268 937.744 83.4517L964.023 88.4233C977.635 91.0275 987.756 95.348 994.385 101.385C1001.07 107.422 1004.45 115.412 1004.51 125.355C1004.45 134.706 1001.66 142.844 996.16 149.769C990.715 156.694 983.258 162.08 973.788 165.927C964.318 169.715 953.488 171.609 941.295 171.609C921.823 171.609 906.465 167.614 895.219 159.624C884.033 151.574 877.641 140.803 876.043 127.308L918.923 126.243C919.87 131.214 922.326 135.002 926.292 137.607C930.257 140.211 935.318 141.513 941.473 141.513C947.036 141.513 951.564 140.477 955.056 138.406C958.548 136.334 960.323 133.582 960.383 130.149C960.323 127.072 958.962 124.615 956.299 122.781C953.635 120.887 949.463 119.407 943.781 118.342L919.988 113.814C906.317 111.328 896.137 106.741 889.449 100.053C882.761 93.3061 879.446 84.7242 879.505 74.3075C879.446 65.193 881.873 57.41 886.785 50.9588C891.698 44.4484 898.682 39.4768 907.737 36.044C916.792 32.6113 927.475 30.8949 939.786 30.8949C958.252 30.8949 972.812 34.7715 983.465 42.5249C994.118 50.219 1000.01 60.8132 1001.13 74.3075Z" fill="black"/>
<path d="M1089.62 171.609C1075.36 171.609 1063.05 168.797 1052.69 163.175C1042.39 157.493 1034.46 149.414 1028.9 138.938C1023.39 128.403 1020.64 115.885 1020.64 101.385C1020.64 87.2988 1023.42 74.9882 1028.99 64.4531C1034.55 53.8589 1042.39 45.6321 1052.51 39.7727C1062.63 33.8542 1074.56 30.8949 1088.29 30.8949C1098 30.8949 1106.87 32.4041 1114.92 35.4226C1122.97 38.441 1129.93 42.9096 1135.79 48.8281C1141.65 54.7467 1146.2 62.0561 1149.46 70.7564C1152.71 79.3975 1154.34 89.3111 1154.34 100.497V111.328H1035.82V86.1151H1113.95C1113.89 81.4986 1112.79 77.3852 1110.66 73.7749C1108.53 70.1645 1105.6 67.3532 1101.87 65.3409C1098.2 63.2694 1093.97 62.2337 1089.18 62.2337C1084.32 62.2337 1079.97 63.3286 1076.13 65.5185C1072.28 67.6492 1069.23 70.5788 1066.98 74.3075C1064.73 77.977 1063.55 82.1496 1063.43 86.8253V112.482C1063.43 118.046 1064.53 122.929 1066.72 127.131C1068.91 131.274 1072.01 134.499 1076.04 136.808C1080.06 139.116 1084.86 140.27 1090.42 140.27C1094.27 140.27 1097.76 139.737 1100.9 138.672C1104.03 137.607 1106.73 136.038 1108.98 133.967C1111.22 131.895 1112.91 129.35 1114.04 126.332L1153.9 127.486C1152.24 136.423 1148.6 144.206 1142.98 150.835C1137.41 157.404 1130.1 162.524 1121.05 166.193C1111.99 169.804 1101.52 171.609 1089.62 171.609Z" fill="black"/>
<path d="M1219.93 91.2642V169.034H1176.51V32.6705H1217.8V57.706H1219.3C1222.32 49.3608 1227.47 42.8208 1234.75 38.0859C1242.03 33.2919 1250.7 30.8949 1260.76 30.8949C1270.35 30.8949 1278.67 33.0552 1285.71 37.3757C1292.81 41.6371 1298.32 47.6148 1302.22 55.3089C1306.19 62.9439 1308.14 71.8809 1308.08 82.12V169.034H1264.67V90.6428C1264.73 83.067 1262.81 77.1484 1258.9 72.8871C1255.05 68.6257 1249.7 66.495 1242.83 66.495C1238.27 66.495 1234.25 67.5012 1230.76 69.5135C1227.32 71.4666 1224.66 74.2779 1222.77 77.9474C1220.93 81.617 1219.99 86.0559 1219.93 91.2642Z" fill="black"/>
<path d="M1411.93 32.6705V64.6307H1325.91V32.6705H1411.93ZM1343.93 0H1387.34V126.154C1387.34 128.817 1387.75 130.978 1388.58 132.635C1389.47 134.233 1390.74 135.387 1392.4 136.097C1394.06 136.748 1396.04 137.074 1398.35 137.074C1400.01 137.074 1401.75 136.926 1403.59 136.63C1405.48 136.275 1406.9 135.979 1407.85 135.742L1414.42 167.081C1412.35 167.673 1409.42 168.413 1405.63 169.3C1401.9 170.188 1397.43 170.75 1392.22 170.987C1382.04 171.461 1373.31 170.277 1366.03 167.436C1358.81 164.536 1353.28 160.038 1349.43 153.942C1345.64 147.846 1343.81 140.181 1343.93 130.948V0Z" fill="black"/>
</svg>
