<svg width="297" height="141" viewBox="0 0 297 141" fill="none" xmlns="http://www.w3.org/2000/svg">
<path d="M0 138.228V1.86434H42.1697V26.7223H43.5902C46.076 17.7261 50.1302 11.0381 55.7528 6.65838C61.3755 2.21946 67.9155 0 75.3729 0C77.3852 0 79.4567 0.147964 81.5874 0.443891C83.718 0.68063 85.7008 1.06534 87.5355 1.59802V39.3288C85.464 38.6186 82.7415 38.0563 79.3679 37.642C76.0535 37.2277 73.0942 37.0206 70.4901 37.0206C65.3409 37.0206 60.6948 38.1747 56.5518 40.483C52.468 42.732 49.2424 45.8984 46.875 49.9822C44.5668 54.0069 43.4126 58.7417 43.4126 64.1868V138.228H0Z" fill="white"/>
<path d="M161.887 140.803C147.624 140.803 135.313 137.991 124.956 132.369C114.657 126.687 106.726 118.608 101.163 108.132C95.6587 97.5971 92.9066 85.0793 92.9066 70.5788C92.9066 56.4927 95.6883 44.1821 101.252 33.647C106.815 23.0528 114.657 14.826 124.778 8.96661C134.899 3.04806 146.825 0.0887811 160.556 0.0887811C170.262 0.0887811 179.14 1.59801 187.189 4.61647C195.239 7.63494 202.193 12.1035 208.052 18.022C213.912 23.9406 218.469 31.25 221.724 39.9503C224.979 48.5914 226.607 58.505 226.607 69.691V80.522H108.088V55.3089H186.213C186.154 50.6925 185.059 46.5791 182.928 42.9688C180.797 39.3584 177.868 36.5471 174.139 34.5348C170.469 32.4633 166.238 31.4276 161.444 31.4276C156.59 31.4276 152.24 32.5225 148.393 34.7124C144.546 36.843 141.498 39.7727 139.249 43.5014C137 47.1709 135.816 51.3435 135.698 56.0192V81.6761C135.698 87.2396 136.793 92.1224 138.983 96.3246C141.172 100.468 144.28 103.693 148.304 106.001C152.329 108.31 157.123 109.464 162.686 109.464C166.533 109.464 170.025 108.931 173.162 107.866C176.299 106.8 178.992 105.232 181.241 103.161C183.49 101.089 185.177 98.544 186.301 95.5256L226.163 96.6797C224.506 105.617 220.866 113.4 215.243 120.028C209.68 126.598 202.37 131.718 193.315 135.387C184.26 138.997 173.784 140.803 161.887 140.803Z" fill="white"/>
<path d="M273.193 140.803C266.801 140.803 261.327 138.554 256.769 134.055C252.271 129.557 250.052 124.112 250.111 117.72C250.052 111.446 252.271 106.09 256.769 101.651C261.327 97.1532 266.801 94.9041 273.193 94.9041C279.23 94.9041 284.557 97.1532 289.173 101.651C293.849 106.09 296.217 111.446 296.276 117.72C296.217 121.982 295.092 125.858 292.902 129.35C290.771 132.842 287.96 135.624 284.468 137.695C281.035 139.767 277.277 140.803 273.193 140.803ZM273.193 47.2301C266.801 47.2301 261.327 45.0107 256.769 40.5717C252.271 36.0736 250.052 30.599 250.111 24.1477C250.052 17.874 252.271 12.5178 256.769 8.07883C261.327 3.58072 266.801 1.33167 273.193 1.33167C279.23 1.33167 284.557 3.58072 289.173 8.07883C293.849 12.5178 296.217 17.874 296.276 24.1477C296.217 28.4091 295.092 32.2857 292.902 35.7777C290.771 39.2696 287.96 42.0514 284.468 44.1229C281.035 46.1944 277.277 47.2301 273.193 47.2301Z" fill="white"/>
</svg>
