<svg width="1629" height="949" viewBox="0 0 1629 949" fill="none" xmlns="http://www.w3.org/2000/svg">
<path d="M1607.03 948.411H21.9692C16.1446 948.405 10.5604 946.088 6.44179 941.97C2.32316 937.852 0.0064754 932.269 0 926.445L0 21.9685C0.00593584 16.1442 2.32239 10.5602 6.44107 6.44169C10.5598 2.32315 16.1443 0.00647554 21.9692 0H1607.03C1612.86 0.00701295 1618.44 2.32358 1622.56 6.44156C1626.68 10.5596 1628.99 16.1427 1629 21.9664V926.445C1628.99 932.269 1626.68 937.852 1622.56 941.97C1618.44 946.088 1612.86 948.404 1607.03 948.411Z" fill="#090814"/>
<path d="M1590.95 36.6514H39.8508V911.756H1590.95V36.6514Z" fill="white"/>
<path d="M1405.75 200.904H1134.25C1125.24 200.904 1117.94 208.205 1117.94 217.212V416.91C1117.94 425.916 1125.24 433.217 1134.25 433.217H1405.75C1414.76 433.217 1422.06 425.916 1422.06 416.91V217.212C1422.06 208.205 1414.76 200.904 1405.75 200.904Z" fill="#F2F2F2"/>
<path d="M1406.95 212.45H1133.05V421.676H1406.95V212.45Z" fill="white"/>
<path d="M1274.81 367.648H1274.92C1293.46 366.677 1310.93 358.682 1323.78 345.289C1336.64 331.895 1343.91 314.109 1344.12 295.548C1344.32 276.986 1337.45 259.042 1324.9 245.364C1312.35 231.687 1295.06 223.302 1276.55 221.917C1276.32 221.899 1276.09 221.928 1275.87 222.003C1275.65 222.078 1275.45 222.197 1275.29 222.353C1275.12 222.506 1274.98 222.692 1274.89 222.9C1274.8 223.108 1274.75 223.332 1274.75 223.56L1273.15 365.964C1273.15 366.407 1273.32 366.833 1273.63 367.149C1273.94 367.465 1274.36 367.645 1274.81 367.65L1274.81 367.648Z" fill="#090814"/>
<path d="M1217.54 245.457C1218.1 245.464 1218.65 245.696 1219.04 246.101L1268.07 296.237C1268.27 296.437 1268.43 296.675 1268.53 296.936C1268.64 297.197 1268.69 297.476 1268.68 297.758L1267.92 365.899C1267.92 366.192 1267.86 366.481 1267.74 366.747C1267.62 367.014 1267.44 367.254 1267.23 367.451C1267.01 367.65 1266.75 367.803 1266.48 367.9C1266.2 367.997 1265.9 368.035 1265.61 368.013C1251.98 366.993 1238.9 362.192 1227.85 354.149C1216.79 346.107 1208.2 335.142 1203.04 322.486C1197.87 309.83 1196.34 295.985 1198.61 282.507C1200.89 269.028 1206.87 256.451 1215.9 246.187C1216.1 245.966 1216.33 245.787 1216.6 245.662C1216.87 245.536 1217.16 245.467 1217.45 245.459L1217.54 245.457Z" fill="#E6E6E6"/>
<path d="M1267.39 221.326C1267.94 221.332 1268.46 221.546 1268.86 221.925C1269.07 222.127 1269.24 222.37 1269.35 222.64C1269.47 222.91 1269.52 223.2 1269.52 223.493L1268.83 284.972C1268.82 285.395 1268.69 285.807 1268.45 286.156C1268.22 286.505 1267.88 286.776 1267.49 286.933C1267.09 287.09 1266.66 287.128 1266.25 287.041C1265.83 286.954 1265.46 286.746 1265.16 286.444L1222.38 242.695C1222.17 242.487 1222.01 242.24 1221.91 241.968C1221.8 241.697 1221.76 241.407 1221.77 241.117C1221.78 240.826 1221.85 240.541 1221.97 240.278C1222.1 240.015 1222.27 239.781 1222.49 239.588C1234.94 228.637 1250.71 222.202 1267.26 221.326H1267.39Z" fill="black"/>
<path d="M1245.35 397.173C1245.32 399.767 1244.53 402.294 1243.06 404.435C1241.59 406.576 1239.53 408.234 1237.12 409.2C1234.71 410.166 1232.07 410.396 1229.53 409.862C1226.99 409.327 1224.67 408.052 1222.86 406.197C1221.04 404.342 1219.82 401.992 1219.34 399.442C1218.86 396.892 1219.15 394.258 1220.17 391.873C1221.19 389.487 1222.9 387.458 1225.07 386.041C1227.24 384.624 1229.79 383.884 1232.38 383.913C1235.86 383.952 1239.18 385.371 1241.61 387.858C1244.05 390.345 1245.39 393.695 1245.35 397.173Z" fill="black"/>
<path d="M1282.83 397.593C1282.8 400.187 1282 402.714 1280.53 404.855C1279.07 406.996 1277 408.654 1274.59 409.62C1272.19 410.586 1269.55 410.816 1267.01 410.281C1264.47 409.747 1262.14 408.472 1260.33 406.617C1258.52 404.762 1257.29 402.412 1256.82 399.862C1256.34 397.312 1256.63 394.678 1257.65 392.293C1258.67 389.907 1260.37 387.878 1262.54 386.461C1264.72 385.044 1267.26 384.304 1269.86 384.333C1273.34 384.372 1276.66 385.791 1279.09 388.278C1281.52 390.764 1282.86 394.115 1282.83 397.593Z" fill="#090814"/>
<path d="M1320.3 398.011C1320.27 400.605 1319.47 403.132 1318.01 405.273C1316.54 407.414 1314.47 409.072 1312.07 410.038C1309.66 411.004 1307.02 411.234 1304.48 410.7C1301.94 410.165 1299.62 408.89 1297.8 407.035C1295.99 405.18 1294.77 402.829 1294.29 400.28C1293.81 397.73 1294.1 395.096 1295.12 392.711C1296.14 390.325 1297.84 388.296 1300.02 386.879C1302.19 385.462 1304.73 384.722 1307.33 384.751C1310.81 384.79 1314.13 386.209 1316.56 388.696C1318.99 391.183 1320.34 394.533 1320.3 398.011Z" fill="#E6E6E6"/>
<path d="M1402.55 469.779H1131.04C1122.04 469.779 1114.74 477.08 1114.74 486.087V685.785C1114.74 694.791 1122.04 702.092 1131.04 702.092H1402.55C1411.56 702.092 1418.86 694.791 1418.86 685.785V486.087C1418.86 477.08 1411.56 469.779 1402.55 469.779Z" fill="#F2F2F2"/>
<path d="M1403.75 481.325H1129.85V690.55H1403.75V481.325Z" fill="white"/>
<path d="M1176.32 550.088C1182.6 550.088 1187.69 544.997 1187.69 538.718C1187.69 532.438 1182.6 527.347 1176.32 527.347C1170.04 527.347 1164.95 532.438 1164.95 538.718C1164.95 544.997 1170.04 550.088 1176.32 550.088Z" fill="#090814"/>
<path d="M1359.05 529.869C1361.09 529.869 1363.05 530.681 1364.5 532.127C1365.94 533.574 1366.76 535.535 1366.76 537.58C1366.76 539.625 1365.94 541.587 1364.5 543.033C1363.05 544.479 1361.09 545.292 1359.05 545.292H1239.44C1237.39 545.292 1235.43 544.479 1233.98 543.033C1232.54 541.587 1231.72 539.625 1231.72 537.58C1231.72 535.535 1232.54 533.574 1233.98 532.127C1235.43 530.681 1237.39 529.869 1239.44 529.869H1359.05ZM1359.05 527.979H1239.44C1238.16 527.961 1236.9 528.195 1235.72 528.669C1234.54 529.143 1233.46 529.848 1232.56 530.741C1231.65 531.634 1230.93 532.699 1230.44 533.873C1229.95 535.047 1229.69 536.307 1229.69 537.579C1229.69 538.852 1229.95 540.112 1230.44 541.286C1230.93 542.46 1231.65 543.524 1232.56 544.417C1233.46 545.311 1234.54 546.015 1235.72 546.489C1236.9 546.963 1238.16 547.198 1239.44 547.179H1359.05C1360.32 547.198 1361.58 546.963 1362.76 546.489C1363.94 546.015 1365.02 545.311 1365.93 544.417C1366.83 543.524 1367.55 542.46 1368.04 541.286C1368.53 540.112 1368.79 538.852 1368.79 537.579C1368.79 536.307 1368.53 535.047 1368.04 533.873C1367.55 532.699 1366.83 531.634 1365.93 530.741C1365.02 529.848 1363.94 529.143 1362.76 528.669C1361.58 528.195 1360.32 527.961 1359.05 527.979Z" fill="#3F3D56"/>
<path d="M1311.85 547.181H1221.81C1219.29 547.144 1216.88 546.117 1215.11 544.32C1213.34 542.524 1212.35 540.103 1212.35 537.581C1212.35 535.059 1213.34 532.638 1215.11 530.842C1216.88 529.045 1219.29 528.018 1221.81 527.981H1311.85C1314.37 528.018 1316.78 529.045 1318.55 530.842C1320.32 532.638 1321.31 535.059 1321.31 537.581C1321.31 540.103 1320.32 542.524 1318.55 544.32C1316.78 546.117 1314.37 547.144 1311.85 547.181Z" fill="black"/>
<path d="M1176.32 597.307C1182.6 597.307 1187.69 592.216 1187.69 585.936C1187.69 579.657 1182.6 574.566 1176.32 574.566C1170.04 574.566 1164.95 579.657 1164.95 585.936C1164.95 592.216 1170.04 597.307 1176.32 597.307Z" fill="#090814"/>
<path d="M1359.05 577.087C1361.09 577.087 1363.05 577.9 1364.5 579.346C1365.94 580.792 1366.76 582.754 1366.76 584.799C1366.76 586.844 1365.94 588.806 1364.5 590.252C1363.05 591.698 1361.09 592.51 1359.05 592.51H1239.44C1237.39 592.51 1235.43 591.698 1233.98 590.252C1232.54 588.806 1231.72 586.844 1231.72 584.799C1231.72 582.754 1232.54 580.792 1233.98 579.346C1235.43 577.9 1237.39 577.087 1239.44 577.087H1359.05ZM1359.05 575.198H1239.44C1236.91 575.235 1234.51 576.262 1232.74 578.059C1230.97 579.855 1229.97 582.276 1229.97 584.798C1229.97 587.32 1230.97 589.741 1232.74 591.537C1234.51 593.334 1236.91 594.361 1239.44 594.398H1359.05C1360.32 594.417 1361.58 594.182 1362.76 593.708C1363.94 593.234 1365.02 592.53 1365.93 591.636C1366.83 590.743 1367.55 589.678 1368.04 588.504C1368.53 587.33 1368.79 586.071 1368.79 584.798C1368.79 583.525 1368.53 582.265 1368.04 581.091C1367.55 579.918 1366.83 578.853 1365.93 577.96C1365.02 577.066 1363.94 576.362 1362.76 575.888C1361.58 575.414 1360.32 575.179 1359.05 575.198Z" fill="#3F3D56"/>
<path d="M1345.85 594.4H1221.81C1219.29 594.364 1216.88 593.336 1215.11 591.54C1213.34 589.743 1212.35 587.322 1212.35 584.8C1212.35 582.278 1213.34 579.857 1215.11 578.061C1216.88 576.265 1219.29 575.237 1221.81 575.2H1345.85C1348.37 575.237 1350.78 576.265 1352.55 578.061C1354.32 579.857 1355.31 582.278 1355.31 584.8C1355.31 587.322 1354.32 589.743 1352.55 591.54C1350.78 593.336 1348.37 594.364 1345.85 594.4Z" fill="black"/>
<path d="M1176.32 644.524C1182.6 644.524 1187.69 639.433 1187.69 633.153C1187.69 626.873 1182.6 621.783 1176.32 621.783C1170.04 621.783 1164.95 626.873 1164.95 633.153C1164.95 639.433 1170.04 644.524 1176.32 644.524Z" fill="#090814"/>
<path d="M1359.05 624.307C1361.09 624.307 1363.05 625.119 1364.5 626.565C1365.94 628.011 1366.76 629.973 1366.76 632.018C1366.76 634.063 1365.94 636.025 1364.5 637.471C1363.05 638.917 1361.09 639.73 1359.05 639.73H1239.44C1237.39 639.73 1235.43 638.917 1233.98 637.471C1232.54 636.025 1231.72 634.063 1231.72 632.018C1231.72 629.973 1232.54 628.011 1233.98 626.565C1235.43 625.119 1237.39 624.307 1239.44 624.307H1359.05ZM1359.05 622.417H1239.44C1236.91 622.454 1234.51 623.481 1232.74 625.278C1230.97 627.074 1229.97 629.495 1229.97 632.017C1229.97 634.539 1230.97 636.96 1232.74 638.757C1234.51 640.553 1236.91 641.58 1239.44 641.617H1359.05C1360.32 641.636 1361.58 641.401 1362.76 640.927C1363.94 640.453 1365.02 639.749 1365.93 638.855C1366.83 637.962 1367.55 636.898 1368.04 635.724C1368.53 634.55 1368.79 633.29 1368.79 632.017C1368.79 630.745 1368.53 629.485 1368.04 628.311C1367.55 627.137 1366.83 626.072 1365.93 625.179C1365.02 624.286 1363.94 623.581 1362.76 623.107C1361.58 622.633 1360.32 622.398 1359.05 622.417Z" fill="#3F3D56"/>
<path d="M1272.18 641.623H1221.81C1219.29 641.586 1216.88 640.559 1215.11 638.762C1213.34 636.966 1212.35 634.545 1212.35 632.023C1212.35 629.501 1213.34 627.08 1215.11 625.284C1216.88 623.487 1219.29 622.46 1221.81 622.423H1272.18C1274.7 622.46 1277.11 623.487 1278.88 625.284C1280.65 627.08 1281.64 629.501 1281.64 632.023C1281.64 634.545 1280.65 636.966 1278.88 638.762C1277.11 640.559 1274.7 641.586 1272.18 641.623Z" fill="black"/>
<path d="M1019.29 200.904H226.055C217.048 200.904 209.745 208.205 209.745 217.212V685.784C209.745 694.791 217.048 702.092 226.055 702.092H1019.29C1028.3 702.092 1035.6 694.791 1035.6 685.784V217.212C1035.6 208.205 1028.3 200.904 1019.29 200.904Z" fill="#F2F2F2"/>
<path d="M1019.18 215.869H226.161V685.99H1019.18V215.869Z" fill="white"/>
<path d="M920.834 595.947H342.735C342.256 595.947 341.796 595.757 341.457 595.418C341.117 595.079 340.927 594.619 340.927 594.139V317.092C340.927 316.613 341.117 316.152 341.457 315.813C341.796 315.474 342.256 315.283 342.736 315.283C343.216 315.283 343.676 315.474 344.016 315.813C344.355 316.152 344.546 316.613 344.546 317.092V592.331H920.834C921.314 592.331 921.775 592.522 922.114 592.861C922.453 593.2 922.644 593.66 922.644 594.14C922.644 594.62 922.453 595.08 922.114 595.42C921.775 595.759 921.314 595.949 920.834 595.949V595.947Z" fill="#090814"/>
<path d="M466.249 576.05H413.668C412.245 576.048 410.88 575.482 409.873 574.475C408.866 573.469 408.3 572.104 408.298 570.681V498.207C408.3 496.784 408.866 495.419 409.873 494.412C410.88 493.406 412.245 492.84 413.668 492.838H466.249C467.673 492.84 469.038 493.406 470.044 494.412C471.051 495.419 471.617 496.784 471.619 498.207V570.681C471.617 572.104 471.051 573.469 470.044 574.475C469.038 575.482 467.673 576.048 466.249 576.05Z" fill="black"/>
<path d="M562.146 576.05H509.547C508.124 576.048 506.759 575.482 505.752 574.476C504.745 573.469 504.179 572.104 504.177 570.681V429.466C504.179 428.043 504.745 426.678 505.752 425.672C506.759 424.665 508.124 424.099 509.547 424.097H562.146C563.57 424.099 564.935 424.665 565.942 425.672C566.948 426.678 567.515 428.043 567.516 429.466V570.681C567.515 572.104 566.948 573.469 565.942 574.476C564.935 575.482 563.57 576.048 562.146 576.05Z" fill="black"/>
<path d="M658.023 576.05H605.443C604.019 576.048 602.654 575.482 601.647 574.475C600.64 573.469 600.074 572.104 600.073 570.681V498.207C600.074 496.784 600.64 495.419 601.647 494.412C602.654 493.406 604.019 492.84 605.443 492.838H658.023C659.447 492.84 660.812 493.406 661.818 494.412C662.825 495.419 663.391 496.784 663.393 498.207V570.681C663.391 572.104 662.825 573.469 661.818 574.475C660.812 575.482 659.447 576.048 658.023 576.05Z" fill="black"/>
<path d="M753.91 576.05H701.33C699.938 576.08 698.592 575.557 697.586 574.596C696.579 573.635 695.994 572.314 695.96 570.923V402.088C695.994 400.697 696.579 399.376 697.586 398.415C698.592 397.455 699.938 396.932 701.33 396.961H753.91C755.302 396.932 756.648 397.455 757.654 398.415C758.661 399.376 759.246 400.697 759.28 402.088V570.921C759.246 572.312 758.661 573.633 757.654 574.594C756.648 575.555 755.302 576.077 753.91 576.048V576.05Z" fill="black"/>
<path d="M849.795 576.048H797.215C795.791 576.046 794.426 575.48 793.419 574.473C792.413 573.467 791.846 572.102 791.845 570.679V353.491C791.846 352.067 792.413 350.703 793.419 349.696C794.426 348.689 795.791 348.123 797.215 348.122H849.795C851.219 348.123 852.584 348.689 853.591 349.696C854.597 350.703 855.164 352.067 855.165 353.491V570.681C855.163 572.104 854.597 573.468 853.59 574.474C852.583 575.48 851.219 576.046 849.795 576.048Z" fill="black"/>
<path d="M439.958 471.126C445.952 471.126 450.812 466.267 450.812 460.274C450.812 454.28 445.952 449.421 439.958 449.421C433.963 449.421 429.104 454.28 429.104 460.274C429.104 466.267 433.963 471.126 439.958 471.126Z" fill="#090814"/>
<path d="M535.845 400.58C541.839 400.58 546.699 395.721 546.699 389.727C546.699 383.733 541.839 378.874 535.845 378.874C529.85 378.874 524.991 383.733 524.991 389.727C524.991 395.721 529.85 400.58 535.845 400.58Z" fill="#090814"/>
<path d="M631.732 471.126C637.726 471.126 642.586 466.267 642.586 460.274C642.586 454.28 637.726 449.421 631.732 449.421C625.737 449.421 620.878 454.28 620.878 460.274C620.878 466.267 625.737 471.126 631.732 471.126Z" fill="#090814"/>
<path d="M727.619 366.209C733.613 366.209 738.473 361.35 738.473 355.356C738.473 349.362 733.613 344.503 727.619 344.503C721.624 344.503 716.765 349.362 716.765 355.356C716.765 361.35 721.624 366.209 727.619 366.209Z" fill="#090814"/>
<path d="M823.506 326.41C829.501 326.41 834.36 321.551 834.36 315.557C834.36 309.564 829.501 304.705 823.506 304.705C817.511 304.705 812.652 309.564 812.652 315.557C812.652 321.551 817.511 326.41 823.506 326.41Z" fill="#090814"/>
<path d="M631.962 462.708L535.849 390.726L441.048 461.723L438.879 458.828L535.851 386.202L631.508 457.842L726.567 353.832L726.946 353.677L822.833 315.048L824.187 318.403L728.681 356.879L631.962 462.708Z" fill="#090814"/>
</svg>
