<svg width="775" height="528" viewBox="0 0 775 528" fill="none" xmlns="http://www.w3.org/2000/svg">
<path d="M761.8 0H13.2C9.6972 0.00662154 6.34012 1.40262 3.86542 3.88164C1.39071 6.36066 0.000523468 9.72018 0 13.223V514.23C0.00502605 517.729 1.39737 521.084 3.87177 523.558C6.34616 526.033 9.7007 527.425 13.2 527.43H761.8C765.299 527.425 768.654 526.033 771.128 523.558C773.603 521.084 774.995 517.729 775 514.23V13.224C775 9.72266 773.611 6.36433 771.138 3.88551C768.665 1.40669 765.31 0.00972927 761.809 0.000991821L761.8 0Z" fill="white"/>
<path d="M255.182 357.189H49.6449C48.6358 357.188 47.6683 356.786 46.9548 356.073C46.2413 355.359 45.8399 354.392 45.8389 353.383V302.4C45.8402 301.391 46.2416 300.423 46.9551 299.71C47.6686 298.996 48.6359 298.595 49.6449 298.594H255.182C256.191 298.595 257.158 298.996 257.872 299.71C258.585 300.423 258.987 301.391 258.988 302.4V353.38C258.987 354.389 258.585 355.356 257.872 356.07C257.158 356.783 256.191 357.184 255.182 357.186V357.189ZM49.6449 300.115C49.0388 300.114 48.4574 300.355 48.0285 300.783C47.5996 301.212 47.3584 301.793 47.3579 302.399V353.38C47.3584 353.985 47.5992 354.566 48.0274 354.994C48.4557 355.422 49.0363 355.663 49.6419 355.664H255.182C255.787 355.663 256.368 355.422 256.796 354.994C257.225 354.566 257.465 353.985 257.466 353.38V302.399C257.465 301.793 257.225 301.213 256.796 300.784C256.368 300.356 255.787 300.115 255.182 300.115H49.6449Z" fill="#E6E6E6"/>
<path d="M113.21 316.954C112.512 316.968 111.848 317.254 111.359 317.753C110.87 318.251 110.597 318.921 110.597 319.619C110.597 320.316 110.87 320.986 111.359 321.485C111.848 321.983 112.512 322.27 113.21 322.283H238.81C239.512 322.303 240.194 322.044 240.706 321.564C241.219 321.084 241.521 320.421 241.548 319.719C241.574 319.017 241.322 318.333 240.847 317.816C240.372 317.299 239.712 316.99 239.01 316.957H238.893H113.209L113.21 316.954Z" fill="#E6E6E6"/>
<path d="M113.21 332.938C112.503 332.938 111.825 333.218 111.326 333.718C110.826 334.218 110.545 334.895 110.545 335.602C110.545 336.309 110.826 336.986 111.326 337.486C111.825 337.986 112.503 338.266 113.21 338.266H238.81C239.512 338.286 240.193 338.028 240.706 337.548C241.219 337.067 241.521 336.404 241.547 335.703C241.574 335.001 241.322 334.317 240.847 333.8C240.372 333.282 239.711 332.974 239.01 332.94H238.893H113.209L113.21 332.938Z" fill="#E6E6E6"/>
<path d="M182.707 264.784C182.221 264.786 181.744 264.653 181.328 264.399C180.913 264.146 180.577 263.783 180.356 263.349C178.477 259.676 175.883 256.415 172.727 253.758C169.57 251.101 165.915 249.101 161.975 247.875C160.362 247.386 158.716 247.013 157.049 246.76L156.709 246.709L174.239 191.901L174.539 191.911C208.595 201.165 228.08 228.459 233.239 236.604C233.436 236.916 233.565 237.265 233.618 237.629C233.671 237.994 233.648 238.365 233.548 238.72C233.449 239.074 233.277 239.404 233.042 239.688C232.807 239.972 232.516 240.203 232.186 240.367L183.891 264.504C183.524 264.688 183.118 264.784 182.707 264.784Z" fill="#F2F2F2"/>
<path d="M153.29 275.207C155.879 275.207 157.977 273.109 157.977 270.52C157.977 267.931 155.879 265.833 153.29 265.833C150.701 265.833 148.603 267.931 148.603 270.52C148.603 273.109 150.701 275.207 153.29 275.207Z" fill="#090814"/>
<path d="M121.831 264.715C121.402 264.714 120.98 264.609 120.601 264.408L72.5861 239.078C72.2676 238.91 71.9869 238.678 71.7613 238.398C71.5357 238.117 71.37 237.793 71.2745 237.446C71.1789 237.098 71.1555 236.735 71.2056 236.379C71.2558 236.022 71.3784 235.679 71.5661 235.372C77.9798 225.092 86.1019 215.982 95.5821 208.436C112.163 195.294 131.025 188.701 151.638 188.812C159.369 188.847 167.063 189.889 174.525 191.912L174.825 191.992L157.291 246.792L157.044 246.755C155.465 246.517 153.873 246.375 152.276 246.332C134.435 245.832 126.704 257.977 124.208 263.223C124.058 263.541 123.844 263.825 123.58 264.058C123.316 264.29 123.008 264.467 122.673 264.576C122.403 264.666 122.121 264.712 121.836 264.713L121.831 264.715Z" fill="black"/>
<path d="M174.458 192.193L162.058 247.593C160.431 247.1 158.771 246.724 157.09 246.468L174.45 192.191L174.458 192.193Z" fill="#090814"/>
<path d="M75.288 343.563C84.1168 343.563 91.274 336.406 91.274 327.577C91.274 318.748 84.1168 311.591 75.288 311.591C66.4592 311.591 59.302 318.748 59.302 327.577C59.302 336.406 66.4592 343.563 75.288 343.563Z" fill="black"/>
<path d="M73.0061 336.293C72.717 336.293 72.4318 336.225 72.1732 336.096C71.9146 335.967 71.6896 335.779 71.5161 335.548L66.9472 329.456C66.6569 329.06 66.5343 328.566 66.6063 328.08C66.6783 327.595 66.939 327.157 67.3316 326.863C67.7243 326.568 68.2173 326.441 68.7034 326.508C69.1896 326.575 69.6297 326.831 69.9281 327.221L72.9171 331.206L80.5941 319.691C80.8697 319.283 81.2954 319.001 81.7782 318.906C82.2609 318.811 82.7616 318.911 83.1709 319.184C83.5803 319.457 83.8651 319.881 83.9631 320.363C84.0611 320.845 83.9644 321.346 83.6941 321.758L74.5561 335.464C74.3906 335.712 74.1681 335.916 73.9071 336.061C73.6461 336.205 73.3542 336.284 73.0561 336.293H73.0061Z" fill="white"/>
<path d="M500.77 357.189H295.233C294.224 357.188 293.256 356.786 292.543 356.073C291.829 355.359 291.428 354.392 291.427 353.383V302.4C291.428 301.391 291.83 300.423 292.543 299.71C293.257 298.996 294.224 298.595 295.233 298.594H500.77C501.779 298.595 502.746 298.996 503.46 299.71C504.173 300.423 504.575 301.391 504.576 302.4V353.38C504.575 354.389 504.173 355.356 503.46 356.07C502.746 356.783 501.779 357.184 500.77 357.186V357.189ZM295.233 300.115C294.627 300.114 294.046 300.355 293.617 300.783C293.188 301.212 292.947 301.793 292.946 302.399V353.38C292.947 353.985 293.187 354.566 293.616 354.994C294.044 355.422 294.624 355.663 295.23 355.664H500.77C501.376 355.663 501.956 355.422 502.384 354.994C502.813 354.566 503.053 353.985 503.054 353.38V302.399C503.053 301.793 502.813 301.213 502.384 300.784C501.956 300.356 501.376 300.115 500.77 300.115H295.233Z" fill="#E6E6E6"/>
<path d="M358.798 316.954C358.1 316.968 357.436 317.254 356.947 317.753C356.458 318.251 356.185 318.921 356.185 319.619C356.185 320.316 356.458 320.986 356.947 321.485C357.436 321.983 358.1 322.27 358.798 322.283H484.398C485.1 322.303 485.781 322.044 486.294 321.564C486.807 321.084 487.109 320.421 487.135 319.719C487.162 319.017 486.91 318.333 486.435 317.816C485.96 317.299 485.299 316.99 484.598 316.957H484.481H358.797L358.798 316.954Z" fill="#E6E6E6"/>
<path d="M358.798 332.938C358.091 332.938 357.414 333.218 356.914 333.718C356.414 334.218 356.134 334.895 356.134 335.602C356.134 336.309 356.414 336.986 356.914 337.486C357.414 337.986 358.091 338.266 358.798 338.266H484.398C485.1 338.286 485.782 338.028 486.294 337.548C486.807 337.067 487.109 336.404 487.136 335.703C487.162 335.001 486.91 334.317 486.435 333.8C485.96 333.282 485.3 332.974 484.598 332.94H484.481H358.797L358.798 332.938Z" fill="#E6E6E6"/>
<path d="M428.295 264.784C427.809 264.786 427.331 264.653 426.916 264.399C426.501 264.146 426.165 263.783 425.944 263.349C424.065 259.676 421.471 256.415 418.315 253.758C415.158 251.101 411.503 249.101 407.563 247.875C405.95 247.386 404.303 247.013 402.637 246.76L402.297 246.709L419.827 191.901L420.127 191.911C454.183 201.165 473.668 228.459 478.827 236.604C479.023 236.916 479.153 237.265 479.206 237.629C479.259 237.994 479.235 238.365 479.136 238.72C479.037 239.074 478.864 239.404 478.63 239.688C478.395 239.972 478.104 240.203 477.774 240.367L429.479 264.504C429.112 264.688 428.706 264.784 428.295 264.784Z" fill="#F2F2F2"/>
<path d="M398.877 275.205C401.465 275.205 403.564 273.107 403.564 270.518C403.564 267.929 401.465 265.831 398.877 265.831C396.288 265.831 394.19 267.929 394.19 270.518C394.19 273.107 396.288 275.205 398.877 275.205Z" fill="#090814"/>
<path d="M367.419 264.715C366.99 264.714 366.568 264.609 366.189 264.408L318.174 239.078C317.855 238.91 317.575 238.678 317.349 238.398C317.124 238.117 316.958 237.793 316.862 237.446C316.767 237.098 316.743 236.735 316.794 236.379C316.844 236.022 316.966 235.679 317.154 235.372C323.568 225.092 331.69 215.982 341.17 208.436C357.751 195.294 376.613 188.701 397.226 188.812C404.957 188.847 412.651 189.889 420.113 191.912L420.413 191.992L402.879 246.792L402.632 246.755C401.053 246.517 399.46 246.375 397.864 246.332C380.023 245.832 372.292 257.977 369.796 263.223C369.646 263.541 369.432 263.825 369.168 264.058C368.904 264.29 368.595 264.467 368.261 264.576C367.991 264.666 367.709 264.712 367.424 264.713L367.419 264.715Z" fill="black"/>
<path d="M420.046 192.193L407.646 247.593C406.019 247.1 404.359 246.724 402.678 246.468L420.038 192.191L420.046 192.193Z" fill="#090814"/>
<path d="M320.876 343.563C329.705 343.563 336.862 336.406 336.862 327.577C336.862 318.748 329.705 311.591 320.876 311.591C312.047 311.591 304.89 318.748 304.89 327.577C304.89 336.406 312.047 343.563 320.876 343.563Z" fill="black"/>
<path d="M318.594 336.293C318.305 336.293 318.02 336.225 317.761 336.096C317.502 335.967 317.277 335.779 317.104 335.548L312.535 329.456C312.245 329.06 312.122 328.566 312.194 328.08C312.266 327.595 312.527 327.157 312.92 326.863C313.312 326.568 313.805 326.441 314.291 326.508C314.778 326.575 315.218 326.831 315.516 327.221L318.505 331.206L326.182 319.691C326.458 319.283 326.883 319.001 327.366 318.906C327.849 318.811 328.349 318.911 328.759 319.184C329.168 319.457 329.453 319.881 329.551 320.363C329.649 320.845 329.552 321.346 329.282 321.758L320.144 335.464C319.979 335.712 319.756 335.916 319.495 336.061C319.234 336.205 318.942 336.284 318.644 336.293H318.594Z" fill="white"/>
<path d="M746.358 357.189H540.821C539.812 357.188 538.844 356.786 538.131 356.073C537.417 355.359 537.016 354.392 537.015 353.383V302.4C537.016 301.391 537.418 300.423 538.131 299.71C538.845 298.996 539.812 298.595 540.821 298.594H746.358C747.367 298.595 748.334 298.996 749.048 299.71C749.761 300.423 750.163 301.391 750.164 302.4V353.38C750.163 354.389 749.761 355.356 749.048 356.07C748.334 356.783 747.367 357.184 746.358 357.186V357.189ZM540.821 300.115C540.215 300.114 539.633 300.355 539.205 300.783C538.776 301.212 538.534 301.793 538.534 302.399V353.38C538.534 353.985 538.775 354.566 539.203 354.994C539.632 355.422 540.212 355.663 540.818 355.664H746.358C746.963 355.663 747.544 355.422 747.972 354.994C748.401 354.566 748.641 353.985 748.642 353.38V302.399C748.641 301.793 748.401 301.213 747.972 300.784C747.544 300.356 746.963 300.115 746.358 300.115H540.821Z" fill="#E6E6E6"/>
<path d="M604.386 316.954C603.688 316.968 603.024 317.254 602.535 317.753C602.046 318.251 601.773 318.921 601.773 319.619C601.773 320.316 602.046 320.986 602.535 321.485C603.024 321.983 603.688 322.27 604.386 322.283H729.986C730.688 322.303 731.37 322.044 731.882 321.564C732.395 321.084 732.697 320.421 732.724 319.719C732.75 319.017 732.498 318.333 732.023 317.816C731.548 317.299 730.888 316.99 730.186 316.957H730.069H604.385L604.386 316.954Z" fill="#E6E6E6"/>
<path d="M604.386 332.938C603.679 332.938 603.002 333.218 602.502 333.718C602.002 334.218 601.721 334.895 601.721 335.602C601.721 336.309 602.002 336.986 602.502 337.486C603.002 337.986 603.679 338.266 604.386 338.266H729.986C730.688 338.286 731.369 338.028 731.882 337.548C732.395 337.067 732.697 336.404 732.723 335.703C732.75 335.001 732.498 334.317 732.023 333.8C731.548 333.282 730.887 332.974 730.186 332.94H730.069H604.385L604.386 332.938Z" fill="#E6E6E6"/>
<path d="M673.883 264.784C673.397 264.786 672.92 264.653 672.505 264.399C672.089 264.146 671.753 263.783 671.532 263.349C669.653 259.676 667.059 256.415 663.903 253.758C660.746 251.101 657.091 249.101 653.151 247.875C651.538 247.386 649.892 247.013 648.225 246.76L647.885 246.709L665.415 191.901L665.715 191.911C699.771 201.165 719.256 228.459 724.415 236.604C724.612 236.916 724.741 237.265 724.794 237.629C724.847 237.994 724.824 238.365 724.724 238.72C724.625 239.074 724.453 239.404 724.218 239.688C723.983 239.972 723.692 240.203 723.362 240.367L675.067 264.504C674.7 264.688 674.294 264.784 673.883 264.784Z" fill="#F2F2F2"/>
<path d="M644.465 275.205C647.053 275.205 649.152 273.107 649.152 270.518C649.152 267.929 647.053 265.831 644.465 265.831C641.876 265.831 639.778 267.929 639.778 270.518C639.778 273.107 641.876 275.205 644.465 275.205Z" fill="#090814"/>
<path d="M613.007 264.715C612.578 264.714 612.156 264.609 611.777 264.408L563.762 239.078C563.444 238.91 563.163 238.678 562.937 238.398C562.712 238.117 562.546 237.793 562.45 237.446C562.355 237.098 562.332 236.735 562.382 236.379C562.432 236.022 562.554 235.679 562.742 235.372C569.156 225.092 577.278 215.982 586.758 208.436C603.339 195.294 622.201 188.701 642.814 188.812C650.545 188.847 658.239 189.889 665.701 191.912L666.001 191.992L648.467 246.792L648.22 246.755C646.641 246.517 645.049 246.375 643.452 246.332C625.611 245.832 617.88 257.977 615.384 263.223C615.234 263.541 615.02 263.825 614.756 264.058C614.492 264.29 614.184 264.467 613.849 264.576C613.579 264.666 613.297 264.712 613.012 264.713L613.007 264.715Z" fill="black"/>
<path d="M665.634 192.193L653.234 247.593C651.607 247.1 649.947 246.724 648.266 246.468L665.626 192.191L665.634 192.193Z" fill="#090814"/>
<path d="M566.464 343.563C575.293 343.563 582.45 336.406 582.45 327.577C582.45 318.748 575.293 311.591 566.464 311.591C557.635 311.591 550.478 318.748 550.478 327.577C550.478 336.406 557.635 343.563 566.464 343.563Z" fill="black"/>
<path d="M564.182 336.293C563.893 336.293 563.608 336.225 563.349 336.096C563.091 335.967 562.866 335.779 562.692 335.548L558.123 329.456C557.833 329.06 557.71 328.566 557.782 328.08C557.854 327.595 558.115 327.157 558.508 326.863C558.9 326.568 559.393 326.441 559.879 326.508C560.366 326.575 560.806 326.831 561.104 327.221L564.093 331.206L571.77 319.691C572.046 319.283 572.471 319.001 572.954 318.906C573.437 318.811 573.938 318.911 574.347 319.184C574.756 319.457 575.041 319.881 575.139 320.363C575.237 320.845 575.14 321.346 574.87 321.758L565.732 335.464C565.567 335.712 565.344 335.916 565.083 336.061C564.822 336.205 564.53 336.284 564.232 336.293H564.182Z" fill="white"/>
<path d="M52.001 398.339H744.001C747.315 398.339 750.001 400.324 750.001 402.772V482.572C750.001 485.02 747.315 487.005 744.001 487.005H52.001C48.687 487.005 46.001 485.02 46.001 482.572V402.772C46.001 400.324 48.687 398.339 52.001 398.339Z" fill="#F2F2F2"/>
<path d="M747.973 126.907H48.1939C46.9849 126.907 46.0039 126.666 46.0039 126.368V43.8535C46.0039 43.5535 46.9839 43.3145 48.1939 43.3145C49.4039 43.3145 50.3839 43.5555 50.3839 43.8535V125.83H747.976C749.186 125.83 750.166 126.071 750.166 126.369C750.166 126.667 749.186 126.908 747.976 126.908L747.973 126.907Z" fill="#E6E6E6"/>
<path d="M83.258 120.982H67.6C67.3899 120.982 67.1818 120.941 66.9877 120.86C66.7936 120.78 66.6172 120.662 66.4686 120.514C66.3201 120.365 66.2022 120.189 66.1218 119.995C66.0414 119.8 66 119.592 66 119.382V97.7982C66 97.5881 66.0414 97.3801 66.1218 97.1859C66.2022 96.9918 66.3201 96.8154 66.4686 96.6669C66.6172 96.5183 66.7936 96.4004 66.9877 96.32C67.1818 96.2396 67.3899 96.1982 67.6 96.1982H83.258C83.4681 96.1982 83.6762 96.2396 83.8703 96.32C84.0644 96.4004 84.2408 96.5183 84.3894 96.6669C84.5379 96.8154 84.6558 96.9918 84.7362 97.1859C84.8166 97.3801 84.858 97.5881 84.858 97.7982V119.383C84.858 119.808 84.6894 120.215 84.3894 120.515C84.0893 120.815 83.6823 120.983 83.258 120.983V120.982Z" fill="black"/>
<path d="M279.258 120.981H263.6C263.39 120.981 263.182 120.939 262.988 120.859C262.794 120.778 262.617 120.661 262.469 120.512C262.32 120.363 262.202 120.187 262.122 119.993C262.041 119.799 262 119.591 262 119.381V77.3227C262 76.8983 262.169 76.4913 262.469 76.1913C262.769 75.8912 263.176 75.7227 263.6 75.7227H279.258C279.468 75.7227 279.676 75.764 279.87 75.8445C280.064 75.9249 280.241 76.0427 280.389 76.1913C280.538 76.3399 280.656 76.5162 280.736 76.7104C280.817 76.9045 280.858 77.1125 280.858 77.3227V119.381C280.858 119.591 280.817 119.799 280.736 119.993C280.656 120.187 280.538 120.363 280.389 120.512C280.241 120.661 280.064 120.778 279.87 120.859C279.676 120.939 279.468 120.981 279.258 120.981Z" fill="black"/>
<path d="M419.258 120.982H403.6C403.39 120.982 403.182 120.941 402.988 120.86C402.794 120.78 402.617 120.662 402.469 120.514C402.32 120.365 402.202 120.189 402.122 119.995C402.041 119.8 402 119.592 402 119.382V97.7982C402 97.5881 402.041 97.3801 402.122 97.1859C402.202 96.9918 402.32 96.8154 402.469 96.6669C402.617 96.5183 402.794 96.4004 402.988 96.32C403.182 96.2396 403.39 96.1982 403.6 96.1982H419.258C419.468 96.1982 419.676 96.2396 419.87 96.32C420.064 96.4004 420.241 96.5183 420.389 96.6669C420.538 96.8154 420.656 96.9918 420.736 97.1859C420.817 97.3801 420.858 97.5881 420.858 97.7982V119.383C420.858 119.807 420.689 120.214 420.389 120.514C420.089 120.814 419.682 120.982 419.258 120.982Z" fill="black"/>
<path d="M531.197 120.98H515.539C515.124 120.989 514.723 120.834 514.423 120.547C514.123 120.261 513.949 119.867 513.939 119.453V69.168C513.949 68.7535 514.123 68.36 514.423 68.0737C514.723 67.7875 515.124 67.6319 515.539 67.641H531.197C531.611 67.6319 532.013 67.7875 532.313 68.0737C532.613 68.36 532.787 68.7535 532.797 69.168V119.453C532.787 119.867 532.613 120.261 532.313 120.547C532.013 120.834 531.611 120.989 531.197 120.98Z" fill="black"/>
<path d="M728.469 120.981H712.811C712.387 120.981 711.98 120.812 711.68 120.512C711.38 120.212 711.211 119.805 711.211 119.381V54.6947C711.211 54.2704 711.38 53.8634 711.68 53.5634C711.98 53.2633 712.387 53.0947 712.811 53.0947H728.469C728.679 53.0947 728.887 53.1361 729.081 53.2165C729.275 53.2969 729.452 53.4148 729.6 53.5634C729.749 53.7119 729.867 53.8883 729.947 54.0824C730.028 54.2765 730.069 54.4846 730.069 54.6947V119.383C730.068 119.807 729.9 120.213 729.6 120.513C729.3 120.812 728.893 120.981 728.469 120.981Z" fill="black"/>
<path d="M75.4918 89.7326C77.2773 89.7326 78.7248 88.2851 78.7248 86.4996C78.7248 84.7141 77.2773 83.2666 75.4918 83.2666C73.7063 83.2666 72.2588 84.7141 72.2588 86.4996C72.2588 88.2851 73.7063 89.7326 75.4918 89.7326Z" fill="#3F3D56"/>
<path d="M271.252 71.6994C273.038 71.6994 274.485 70.2519 274.485 68.4664C274.485 66.6809 273.038 65.2334 271.252 65.2334C269.467 65.2334 268.019 66.6809 268.019 68.4664C268.019 70.2519 269.467 71.6994 271.252 71.6994Z" fill="#3F3D56"/>
<path d="M411.431 89.7326C413.217 89.7326 414.664 88.2851 414.664 86.4996C414.664 84.7141 413.217 83.2666 411.431 83.2666C409.645 83.2666 408.198 84.7141 408.198 86.4996C408.198 88.2851 409.645 89.7326 411.431 89.7326Z" fill="#3F3D56"/>
<path d="M523.773 62.4826C525.559 62.4826 527.006 61.0351 527.006 59.2496C527.006 57.4641 525.559 56.0166 523.773 56.0166C521.988 56.0166 520.54 57.4641 520.54 59.2496C520.54 61.0351 521.988 62.4826 523.773 62.4826Z" fill="#3F3D56"/>
<path d="M720.642 46.631C722.427 46.631 723.875 45.1836 723.875 43.398C723.875 41.6125 722.427 40.165 720.642 40.165C718.856 40.165 717.409 41.6125 717.409 43.398C717.409 45.1836 718.856 46.631 720.642 46.631Z" fill="#3F3D56"/>
<path d="M411.729 87.2232L272.719 68.6032L78.803 86.9302L75.168 86.0672L272.719 67.2572L410.961 85.7752L523.536 58.6172L524.175 58.5712L718.575 43.2432L720.842 44.2432L527.081 59.5272L411.729 87.2232Z" fill="#3F3D56"/>
<path d="M111.258 120.981H95.5998C95.1541 120.958 94.7357 120.759 94.4359 120.428C94.1362 120.097 93.9794 119.662 93.9998 119.216V95.3978C93.9794 94.952 94.1362 94.5161 94.4359 94.1855C94.7357 93.8548 95.1541 93.6561 95.5998 93.6328H111.258C111.704 93.6561 112.122 93.8548 112.422 94.1855C112.721 94.5161 112.878 94.952 112.858 95.3978V119.216C112.878 119.662 112.721 120.097 112.422 120.428C112.122 120.759 111.704 120.958 111.258 120.981Z" fill="#E6E6E6"/>
<path d="M139.258 120.981H123.6C123.154 120.958 122.736 120.759 122.436 120.428C122.136 120.097 121.979 119.662 122 119.216V95.3978C121.979 94.952 122.136 94.5161 122.436 94.1855C122.736 93.8548 123.154 93.6561 123.6 93.6328H139.258C139.704 93.6561 140.122 93.8548 140.422 94.1855C140.721 94.5161 140.878 94.952 140.858 95.3978V119.216C140.878 119.662 140.721 120.097 140.422 120.428C140.122 120.759 139.704 120.958 139.258 120.981Z" fill="#E6E6E6"/>
<path d="M167.258 120.981H151.6C151.123 120.92 150.689 120.674 150.39 120.298C150.092 119.921 149.952 119.443 150 118.964V91.7484C149.952 91.2703 150.092 90.7922 150.391 90.4158C150.69 90.0394 151.123 89.7943 151.6 89.7324H167.258C167.734 89.7943 168.168 90.0394 168.467 90.4158C168.765 90.7922 168.906 91.2703 168.858 91.7484V118.965C168.906 119.444 168.765 119.922 168.467 120.298C168.168 120.674 167.734 120.92 167.258 120.981Z" fill="#E6E6E6"/>
<path d="M195.258 120.981H179.6C178.717 120.981 178 120.005 178 118.803V89.3987C178 88.1987 178.716 87.2217 179.6 87.2207H195.258C196.141 87.2207 196.858 88.1967 196.858 89.3987V118.799C196.858 119.999 196.141 120.976 195.258 120.977V120.981Z" fill="#E6E6E6"/>
<path d="M223.258 120.986H207.6C206.717 120.986 206 119.949 206 118.671V87.4254C206 86.1474 206.716 85.1124 207.6 85.1104H223.258C224.141 85.1104 224.858 86.1474 224.858 87.4254V118.666C224.858 119.944 224.141 120.979 223.258 120.981V120.986Z" fill="#E6E6E6"/>
<path d="M251.258 120.981H235.6C234.717 120.981 234 119.891 234 118.547V85.6996C234 84.3566 234.716 83.2676 235.6 83.2656H251.258C252.141 83.2656 252.858 84.3556 252.858 85.6996V118.547C252.858 119.89 252.141 120.979 251.258 120.981Z" fill="#E6E6E6"/>
<path d="M307.258 120.981H291.6C290.717 120.981 290 119.891 290 118.547V85.6996C290 84.3566 290.716 83.2676 291.6 83.2656H307.258C308.141 83.2656 308.858 84.3556 308.858 85.6996V118.547C308.858 119.89 308.141 120.979 307.258 120.981Z" fill="#E6E6E6"/>
<path d="M335.258 120.986H319.6C318.717 120.986 318 119.949 318 118.671V87.4254C318 86.1474 318.716 85.1124 319.6 85.1104H335.258C336.141 85.1104 336.858 86.1474 336.858 87.4254V118.666C336.858 119.944 336.141 120.979 335.258 120.981V120.986Z" fill="#E6E6E6"/>
<path d="M363.258 120.981H347.6C347.123 120.92 346.689 120.674 346.39 120.298C346.092 119.921 345.952 119.443 346 118.964V91.7484C345.952 91.2703 346.092 90.7922 346.391 90.4158C346.69 90.0394 347.123 89.7943 347.6 89.7324H363.258C363.734 89.7943 364.168 90.0394 364.467 90.4158C364.765 90.7922 364.906 91.2703 364.858 91.7484V118.965C364.906 119.444 364.765 119.922 364.467 120.298C364.168 120.674 363.734 120.92 363.258 120.981Z" fill="#E6E6E6"/>
<path d="M391.258 120.981H375.6C375.154 120.958 374.736 120.759 374.436 120.428C374.136 120.097 373.979 119.662 374 119.216V95.3978C373.979 94.952 374.136 94.5161 374.436 94.1855C374.736 93.8548 375.154 93.6561 375.6 93.6328H391.258C391.704 93.6561 392.122 93.8548 392.422 94.1855C392.721 94.5161 392.878 94.952 392.858 95.3978V119.216C392.878 119.662 392.721 120.097 392.422 120.428C392.122 120.759 391.704 120.958 391.258 120.981Z" fill="#E6E6E6"/>
<path d="M447.198 120.981H431.54C431.094 120.958 430.676 120.759 430.376 120.428C430.076 120.097 429.92 119.662 429.94 119.216V95.3978C429.92 94.952 430.076 94.5161 430.376 94.1855C430.676 93.8548 431.094 93.6561 431.54 93.6328H447.198C447.644 93.6561 448.062 93.8548 448.362 94.1855C448.662 94.5161 448.818 94.952 448.798 95.3978V119.216C448.818 119.662 448.662 120.097 448.362 120.428C448.062 120.759 447.644 120.958 447.198 120.981Z" fill="#E6E6E6"/>
<path d="M475.198 120.981H459.54C459.063 120.92 458.629 120.674 458.331 120.298C458.032 119.921 457.892 119.443 457.94 118.964V91.7484C457.892 91.2703 458.032 90.7922 458.331 90.4158C458.63 90.0394 459.063 89.7943 459.54 89.7324H475.198C475.675 89.7943 476.108 90.0394 476.407 90.4158C476.706 90.7922 476.846 91.2703 476.798 91.7484V118.965C476.846 119.444 476.706 119.922 476.407 120.298C476.108 120.674 475.675 120.92 475.198 120.981Z" fill="#E6E6E6"/>
<path d="M503.198 120.981H487.54C486.657 120.981 485.94 120.005 485.94 118.803V89.3987C485.94 88.1987 486.656 87.2217 487.54 87.2207H503.198C504.081 87.2207 504.798 88.1967 504.798 89.3987V118.799C504.798 119.999 504.081 120.976 503.198 120.977V120.981Z" fill="#E6E6E6"/>
<path d="M559.198 120.981H543.54C542.657 120.981 541.94 119.891 541.94 118.547V85.6996C541.94 84.3566 542.656 83.2676 543.54 83.2656H559.198C560.081 83.2656 560.798 84.3556 560.798 85.6996V118.547C560.798 119.89 560.081 120.979 559.198 120.981Z" fill="#E6E6E6"/>
<path d="M587.198 120.986H571.54C570.657 120.986 569.94 119.949 569.94 118.671V87.4254C569.94 86.1474 570.656 85.1124 571.54 85.1104H587.198C588.081 85.1104 588.798 86.1474 588.798 87.4254V118.666C588.798 119.944 588.081 120.979 587.198 120.981V120.986Z" fill="#E6E6E6"/>
<path d="M615.198 120.981H599.54C598.657 120.981 597.94 119.891 597.94 118.547V85.6996C597.94 84.3566 598.656 83.2676 599.54 83.2656H615.198C616.081 83.2656 616.798 84.3556 616.798 85.6996V118.547C616.798 119.89 616.081 120.979 615.198 120.981Z" fill="#E6E6E6"/>
<path d="M643.198 120.981H627.54C626.657 120.981 625.94 119.673 625.94 118.061V78.6436C625.94 77.0316 626.656 75.7246 627.54 75.7236H643.198C644.081 75.7236 644.798 77.0316 644.798 78.6436V118.061C644.798 119.673 644.081 120.98 643.198 120.981Z" fill="#E6E6E6"/>
<path d="M671.198 120.98H655.54C654.657 120.98 653.94 119.462 653.94 117.591V71.8539C653.94 69.9829 654.656 68.4668 655.54 68.4648H671.198C672.081 68.4648 672.798 69.9829 672.798 71.8539V117.592C672.798 119.463 672.081 120.978 671.198 120.98Z" fill="#E6E6E6"/>
<path d="M699.198 120.981H683.54C682.657 120.981 681.94 119.29 681.94 117.206V66.2574C681.94 64.1734 682.656 62.4844 683.54 62.4824H699.198C700.081 62.4824 700.798 64.1734 700.798 66.2574V117.207C700.798 119.291 700.081 120.979 699.198 120.982V120.981Z" fill="#E6E6E6"/>
</svg>
